<svg xmlns="http://www.w3.org/2000/svg" width="53.496" height="53.827" viewBox="0 0 53.496 53.827"><defs><style>.a{fill:#d43359;}.b{fill:#0082b6;}.c,.e,.f{fill:#fff;}.d{fill:#4d4746;}.e{opacity:0.3;}.e,.f{mix-blend-mode:soft-light;isolation:isolate;}.f{opacity:0.2;}.g{fill:#35a29c;}</style></defs><g transform="translate(0 0)"><rect class="a" width="16.758" height="53.625" rx="1.035" transform="translate(0.001 0)"/><rect class="b" width="16.758" height="53.625" rx="1.035" transform="translate(16.759 0)"/><rect class="c" width="10.055" height="26.813" transform="translate(3.352 3.352)"/><rect class="c" width="10.055" height="26.813" transform="translate(20.11 3.352)"/><rect class="c" width="10.055" height="6.703" transform="translate(3.352 33.516)"/><rect class="c" width="10.055" height="6.703" transform="translate(20.11 33.516)"/><ellipse class="d" cx="3.352" cy="3.352" rx="3.352" ry="3.352" transform="translate(5.028 43.571)"/><ellipse class="d" cx="3.352" cy="3.352" rx="3.352" ry="3.352" transform="translate(21.786 43.571)"/><path class="e" d="M1360.181,539.166h10.052v9.4l3.354-3.351v-6.044a3.352,3.352,0,0,0-3.354-3.35h-10.052a3.352,3.352,0,0,0-3.354,3.35v22.8l3.354-3.351Z" transform="translate(-1356.827 -535.814)"/><path class="f" d="M1365.354,539.166h10.056v9.4l3.351-3.351v-6.044a3.349,3.349,0,0,0-3.351-3.35h-10.056a3.349,3.349,0,0,0-3.35,3.35v22.8l3.35-3.351Z" transform="translate(-1345.244 -535.814)"/><rect class="g" width="16.497" height="52.789" rx="1.019" transform="translate(33.7 1.143) rotate(-3.619)"/><rect class="c" width="9.898" height="26.395" transform="translate(37.201 4.228) rotate(-3.619)"/><rect class="c" width="9.898" height="6.599" transform="matrix(0.998, -0.063, 0.063, 0.998, 39.075, 33.862)"/><path class="d" d="M1376.253,552.319a3.3,3.3,0,1,1-3.5-3.085A3.3,3.3,0,0,1,1376.253,552.319Z" transform="translate(-1328.113 -505.806)"/></g></svg>