<svg xmlns="http://www.w3.org/2000/svg" width="58.852" height="58.852" viewBox="0 0 58.852 58.852"><defs><style>.a{fill:#0082b6;}.b{fill:#d43359;}.c{fill:#bce2ea;}.d{fill:#eceded;}.e{opacity:0.3;}.f{fill:#fff;}</style></defs><g transform="translate(29.427 16.553)"><path class="a" d="M1081.2,541.281v42.3h7.355V579.9h14.714v3.678h7.355v-42.3Zm22.069,18.638h-14.714V552.56a7.357,7.357,0,0,1,14.714,0Z" transform="translate(-1081.199 -541.281)"/></g><g transform="translate(0 32.807)"><path class="b" d="M1101.535,546.3l-24.55,15.929h-4.876v10.115h11.035v-.014l.009.014,18.382-11.927Z" transform="translate(-1072.109 -546.302)"/></g><g transform="translate(29.426)"><path class="b" d="M1110.624,549.042H1081.2l14.713-12.874Z" transform="translate(-1081.198 -536.168)"/></g><g transform="translate(36.783 38.621)"><rect class="c" width="14.713" height="11.035"/></g><g transform="translate(29.426 12.874)"><rect class="d" width="29.426" height="3.678"/></g><g transform="translate(0 28.987)"><path class="d" d="M1076.985,561.051h-4.876v3.82h4.876l24.55-15.929v-3.82Z" transform="translate(-1072.109 -545.122)"/></g><g class="e" transform="translate(29.426 12.874)"><rect class="f" width="14.713" height="3.678"/></g><g class="e" transform="translate(29.426)"><path class="f" d="M1095.911,536.168,1081.2,549.042h14.713Z" transform="translate(-1081.198 -536.168)"/></g></svg>