<svg xmlns="http://www.w3.org/2000/svg" width="46.133" height="61.51" viewBox="0 0 46.133 61.51"><defs><style>.a{fill:#927451;}.b{fill:#fff;}.c{fill:#35a29c;}.d{fill:#f3b610;}.e{fill:#f7d044;}.f{fill:#a7adb0;}</style></defs><rect class="a" width="46.133" height="52.86" rx="0.594" transform="translate(0 8.649)"/><rect class="b" width="38.444" height="45.172" transform="translate(3.844 12.494)"/><g transform="translate(7.155 24.23)"><path class="c" d="M1176.188,551.695a1.439,1.439,0,0,1-1.02-.424l-3.842-3.843a1.442,1.442,0,0,1,2.039-2.039l2.823,2.826,5.711-5.711a1.441,1.441,0,0,1,2.036,2.04l-6.727,6.727A1.439,1.439,0,0,1,1176.188,551.695Z" transform="translate(-1170.903 -542.081)"/></g><g transform="translate(7.155 39.608)"><path class="c" d="M1176.188,556.445a1.439,1.439,0,0,1-1.02-.424l-3.842-3.843a1.442,1.442,0,0,1,2.039-2.039l2.823,2.826,5.711-5.711a1.441,1.441,0,0,1,2.036,2.04l-6.727,6.727A1.439,1.439,0,0,1,1176.188,556.445Z" transform="translate(-1170.903 -546.831)"/></g><path class="d" d="M1193.4,540.363h-3.843a5.767,5.767,0,0,0-11.535,0h-3.843a1.923,1.923,0,0,0-1.923,1.923v7.689a1.923,1.923,0,0,0,1.923,1.923H1193.4a1.923,1.923,0,0,0,1.923-1.923v-7.689A1.923,1.923,0,0,0,1193.4,540.363Zm-9.612-3.843a1.921,1.921,0,1,1-1.92,1.92A1.92,1.92,0,0,1,1183.788,536.52Z" transform="translate(-1160.723 -534.597)"/><path class="e" d="M1193.4,540.363h-3.843a5.767,5.767,0,0,0-11.535,0h-3.843a1.923,1.923,0,0,0-1.923,1.923v3.843h23.066v-3.843A1.923,1.923,0,0,0,1193.4,540.363Zm-9.612,0a1.921,1.921,0,1,1,1.923-1.923A1.923,1.923,0,0,1,1183.788,540.363Z" transform="translate(-1160.723 -534.597)"/><g transform="translate(23.829 25.876)"><path class="f" d="M1191.431,543.552a.962.962,0,0,1-.962.961h-13.454a.961.961,0,1,1,0-1.923h13.454A.962.962,0,0,1,1191.431,543.552Z" transform="translate(-1176.054 -542.59)"/></g><g transform="translate(23.829 31.205)"><path class="f" d="M1191.431,545.194a.962.962,0,0,1-.962.961h-13.454a.96.96,0,1,1,0-1.92h13.454A.959.959,0,0,1,1191.431,545.194Z" transform="translate(-1176.054 -544.236)"/></g><g transform="translate(23.829 41.011)"><path class="f" d="M1191.431,548.223a.962.962,0,0,1-.962.961h-13.454a.96.96,0,1,1,0-1.92h13.454A.961.961,0,0,1,1191.431,548.223Z" transform="translate(-1176.054 -547.265)"/></g><g transform="translate(23.829 46.337)"><path class="f" d="M1191.431,549.872a.962.962,0,0,1-.962.962h-13.454a.962.962,0,1,1,0-1.923h13.454A.962.962,0,0,1,1191.431,549.872Z" transform="translate(-1176.054 -548.91)"/></g></svg>