<svg xmlns="http://www.w3.org/2000/svg" width="69.015" height="53.918" viewBox="0 0 69.015 53.918"><defs><style>.a{fill:#927451;}.b{fill:#1d806d;}.c,.f{fill:#fff;}.c{opacity:0.3;mix-blend-mode:soft-light;isolation:isolate;}.d{fill:#289b86;}.e{fill:#896944;}.g{fill:#f3b610;}</style></defs><g transform="translate(0 0)"><g transform="translate(4.313 0)"><rect class="a" width="60.388" height="47.448"/></g><g transform="translate(8.627 4.313)"><rect class="b" width="51.761" height="43.134"/></g><g transform="translate(4.313 0)"><path class="c" d="M1261.111,535.769l4.314,4.313h51.761l4.313-4.313Z" transform="translate(-1261.111 -535.769)"/></g><g transform="translate(8.627 4.313)"><path class="d" d="M1314.205,537.1h-51.761v43.134h8.909l42.852-42.852Z" transform="translate(-1262.444 -537.102)"/></g><g transform="translate(0 47.448)"><rect class="e" width="69.015" height="6.47"/></g><g transform="translate(12.939 40.977)"><path class="f" d="M1276.719,550.583a2.158,2.158,0,0,0-2.159-2.156h-8.625a2.158,2.158,0,0,0-2.159,2.156V554.9h12.943Z" transform="translate(-1263.776 -548.427)"/></g><g transform="translate(47.449 45.293)"><path class="g" d="M1283.06,550.838a1.082,1.082,0,0,1-1.078,1.078h-6.468a1.08,1.08,0,0,1-1.078-1.078h0a1.077,1.077,0,0,1,1.078-1.078h6.468a1.08,1.08,0,0,1,1.078,1.078Z" transform="translate(-1274.436 -549.76)"/></g></g></svg>