<svg xmlns="http://www.w3.org/2000/svg" width="200" height="60" viewBox="0 0 200 60"><defs><style>.a{fill:#474645;}.b,.c{fill:#e0ba2f;}.b,.d,.e{mix-blend-mode:multiply;isolation:isolate;}.c,.f,.g{opacity:0.5;}.d,.f{fill:#2ea4a1;}.e,.g{fill:#d63b64;}</style></defs><g transform="translate(-1154.197 -281.403)"><g transform="translate(1154.197 281.403)"><rect class="a" width="9.75" height="38.279" rx="0.763" transform="translate(53.107 13.562)"/><path class="b" d="M1199.06,281.784h-7.514a1.1,1.1,0,0,0-1.118,1.083v7.583a1.1,1.1,0,0,0,1.118,1.083h7.514a1.1,1.1,0,0,0,1.118-1.083v-7.583A1.1,1.1,0,0,0,1199.06,281.784Z" transform="translate(-1137.321 -281.225)"/><path class="c" d="M1199.06,281.784h-7.514a1.1,1.1,0,0,0-1.118,1.083v7.583a1.1,1.1,0,0,0,1.118,1.083h7.514a1.1,1.1,0,0,0,1.118-1.083v-7.583A1.1,1.1,0,0,0,1199.06,281.784Z" transform="translate(-1137.321 -281.225)"/><path class="a" d="M1196.114,282.484a1.122,1.122,0,0,0-1.044-.7h-9.515a1.134,1.134,0,0,0-.74.274L1164,300V282.88a1.107,1.107,0,0,0-1.118-1.1h-7.568a1.108,1.108,0,0,0-1.12,1.1v49.092a1.108,1.108,0,0,0,1.12,1.094h7.568a1.107,1.107,0,0,0,1.118-1.094V312.311l31.825-28.624A1.084,1.084,0,0,0,1196.114,282.484Z" transform="translate(-1154.197 -281.225)"/><path class="a" d="M1219.255,291.436l-10.588-.007a1.12,1.12,0,0,0-1.12,1.118v7.376a1.12,1.12,0,0,0,1.12,1.118l10.4.015c8.938.07,11.568,6.521,11.568,15.594v11.939a1.118,1.118,0,0,0,1.119,1.118h7.417a1.12,1.12,0,0,0,1.12-1.118V316.651C1240.286,300.7,1232.622,291.523,1219.255,291.436Z" transform="translate(-1129.348 -277.867)"/><rect class="a" width="9.809" height="46.438" rx="0.763" transform="translate(190.191 13.562)"/><rect class="a" width="9.809" height="51.841" rx="0.763" transform="translate(145.173)"/><path class="d" d="M1168.919,295.483a1.13,1.13,0,0,0-.8-.387,1.107,1.107,0,0,0-.83.321l-5.086,4.6a1.117,1.117,0,0,0-.088,1.5l20.681,26.072a1.121,1.121,0,0,0,.871.416h9.841a1.119,1.119,0,0,0,.847-1.85Z" transform="translate(-1150.625 -276.159)"/><rect class="e" width="9.809" height="38.279" rx="0.763" transform="translate(73.296 13.562)"/><path class="b" d="M1285.993,329.558l10.589.007a1.119,1.119,0,0,0,1.118-1.118v-7.376a1.119,1.119,0,0,0-1.118-1.118l-10.4-.013c-7.381-.059-11.568-6.534-11.568-15.594v-11.8a1.119,1.119,0,0,0-1.118-1.118h-7.418a1.119,1.119,0,0,0-1.119,1.118v11.8C1264.963,320.3,1272.626,329.473,1285.993,329.558Z" transform="translate(-1102.604 -277.867)"/><path class="d" d="M1254.94,300.264h2.848a1.006,1.006,0,0,0,1.005-1.005v-6.726a1.006,1.006,0,0,0-1.005-1.007h-2.848c-12.963,0-21.125,6.949-21.125,19.07h0c0,12.119,8.162,19.068,21.125,19.068h11.244a1.006,1.006,0,0,0,1.006-1.005v-6.727a1.006,1.006,0,0,0-1.006-1.005H1254.94c-8.14,0-11.766-4.412-11.76-10.331S1246.8,300.264,1254.94,300.264Z" transform="translate(-1117.113 -277.822)"/><path class="f" d="M1168.919,295.483a1.13,1.13,0,0,0-.8-.387,1.107,1.107,0,0,0-.83.321l-5.086,4.6a1.117,1.117,0,0,0-.088,1.5l20.681,26.072a1.121,1.121,0,0,0,.871.416h9.841a1.119,1.119,0,0,0,.847-1.85Z" transform="translate(-1150.625 -276.159)"/><rect class="g" width="9.809" height="38.279" rx="0.763" transform="translate(73.296 13.562)"/><path class="c" d="M1285.993,329.558l10.589.007a1.119,1.119,0,0,0,1.118-1.118v-7.376a1.119,1.119,0,0,0-1.118-1.118l-10.4-.013c-7.381-.059-11.568-6.534-11.568-15.594v-11.8a1.119,1.119,0,0,0-1.118-1.118h-7.418a1.119,1.119,0,0,0-1.119,1.118v11.8C1264.963,320.3,1272.626,329.473,1285.993,329.558Z" transform="translate(-1102.604 -277.867)"/><path class="f" d="M1254.94,300.264h2.848a1.006,1.006,0,0,0,1.005-1.005v-6.726a1.006,1.006,0,0,0-1.005-1.007h-2.848c-12.963,0-21.125,6.949-21.125,19.07h0c0,12.119,8.162,19.068,21.125,19.068h11.244a1.006,1.006,0,0,0,1.006-1.005v-6.727a1.006,1.006,0,0,0-1.006-1.005H1254.94c-8.14,0-11.766-4.412-11.76-10.331S1246.8,300.264,1254.94,300.264Z" transform="translate(-1117.113 -277.822)"/></g></g></svg>